<svg width="166" height="164" viewBox="0 0 166 164" fill="none" xmlns="http://www.w3.org/2000/svg">
<path d="M20.4998 135.744C25.7974 135.744 30.5208 137.035 33.8699 139.045C37.2489 141.072 38.9998 143.664 38.9998 146.244C38.9998 148.074 39.4125 150.211 39.7986 152.215C40.1991 154.292 40.5819 156.274 40.6424 158.031C40.7035 159.808 40.4191 161.048 39.7762 161.841C39.1799 162.576 38.0083 163.244 35.4998 163.244C32.6945 163.244 28.8245 163.66 25.0066 163.871C21.0813 164.088 17.0168 164.11 13.3973 163.397C9.78473 162.686 6.76593 161.274 4.74303 158.745C2.72943 156.228 1.51463 152.367 1.99493 146.363L1.99983 146.304V146.244C1.99983 143.664 3.75073 141.072 7.12973 139.045C10.4788 137.035 15.2022 135.744 20.4998 135.744Z" fill="#8B6914" fill-opacity="0.54"/>
<path d="M60.4998 129.744C65.7974 129.744 70.5208 131.035 73.8699 133.045C77.2488 135.072 78.9998 137.664 78.9998 140.244C78.9998 143.402 78.2858 148.81 76.2708 153.373C74.2438 157.959 71.1344 161.244 66.4998 161.244H66.2801L66.0691 161.307C61.3436 162.725 57.565 162.466 54.5428 161.293C51.5034 160.113 49.0934 157.954 47.2166 155.351C43.4228 150.091 41.9998 143.282 41.9998 140.244C41.9998 137.664 43.7507 135.072 47.1297 133.045C50.4788 131.035 55.2022 129.744 60.4998 129.744Z" fill="#8B6914" fill-opacity="0.54"/>
<path d="M65.5002 84.7442C68.2976 84.7442 70.693 84.7052 72.7844 84.7502C74.8762 84.7942 76.5258 84.9212 77.7998 85.2192C79.0668 85.5162 79.8048 85.9452 80.2468 86.4732C80.6778 86.9892 80.9998 87.8062 80.9998 89.2442C80.9998 92.4012 80.2858 97.8102 78.2698 102.373C76.2438 106.959 73.1346 110.244 68.5002 110.244H68.3654L68.2326 110.268C57.8983 112.136 51.7421 112.017 48.2473 110.896C46.5416 110.349 45.5635 109.593 44.9992 108.799C44.4337 108.004 44.1736 107.016 44.1867 105.808C44.2141 103.295 45.4017 100.261 46.7404 97.2132C47.3836 95.7492 48.0675 94.2652 48.5754 92.9682C49.0687 91.7092 49.5002 90.3832 49.5002 89.2442C49.5003 87.8332 49.8385 87.0282 50.301 86.5082C50.7858 85.9642 51.5926 85.5242 52.9358 85.2222C54.2799 84.9212 55.9987 84.7942 58.1369 84.7502C60.2757 84.7052 62.7034 84.7442 65.5002 84.7442Z" fill="#8B6914" fill-opacity="0.54"/>
<path d="M29.4266 111.76C36.4604 111.76 42.7556 113.074 47.2361 115.135C51.8458 117.255 53.9997 119.881 53.9998 122.252C53.9998 124.623 51.8459 127.249 47.2361 129.369C42.7556 131.43 36.4605 132.744 29.4266 132.744C22.2655 132.744 13.2183 131.991 6.98713 129.48C3.86493 128.222 1.69493 126.619 0.67953 124.691C-0.28357 122.863 -0.377771 120.402 1.42363 116.95L1.59363 116.624V116.256C1.59363 115.32 2.05613 114.548 3.36213 113.847C4.73483 113.109 6.82473 112.593 9.54083 112.264C14.9568 111.607 22.1552 111.76 29.4266 111.76Z" fill="#8B6914" fill-opacity="0.54"/>
<path d="M28.4295 83.1502C32.5917 83.2132 36.8125 83.4942 40.116 84.3262C43.5544 85.1922 45.3393 86.4812 45.7518 88.0402C45.9603 88.8292 45.8984 89.9302 45.2049 91.4762C44.508 93.0302 43.2132 94.9382 41.1121 97.2512L40.7225 97.6812V98.2602C40.7225 100.839 38.9715 103.431 35.5926 105.459C32.2435 107.468 27.52 108.76 22.2225 108.76C16.7598 108.76 9.93883 108.007 5.27813 105.558C2.97603 104.348 1.33393 102.793 0.544729 100.839C-0.236871 98.9032 -0.284672 96.3172 1.11503 92.8172L1.22253 92.5492V92.2602C1.22253 89.5562 2.55223 87.3832 5.22933 85.8092C7.97483 84.1962 12.12 83.2442 17.4998 83.2442C20.3801 83.2442 24.2221 83.0872 28.4295 83.1502Z" fill="#8B6914" fill-opacity="0.54"/>
<path d="M75.9998 112.744C81.2978 112.744 86.0208 114.035 89.3698 116.045C92.7488 118.072 94.4998 120.664 94.4998 123.244C94.4998 126.569 94.2368 129.534 92.8758 131.675C91.6798 133.556 89.4288 135.083 84.7508 135.23C79.6438 128.491 72.3761 126.778 66.657 125.932C63.5888 125.479 61.2043 125.295 59.4393 124.806C58.585 124.569 58.0923 124.311 57.825 124.066C57.6228 123.881 57.4998 123.667 57.4998 123.244C57.4998 120.664 59.2507 118.072 62.6297 116.045C65.9788 114.035 70.7022 112.744 75.9998 112.744Z" fill="#8B6914" fill-opacity="0.54"/>
<path d="M126.872 85.0092C129.239 84.9862 131.958 85.1652 134.835 85.3552C137.686 85.5442 140.68 85.7442 143.5 85.7442C148.798 85.7442 153.521 87.0352 156.87 89.0452C160.249 91.0722 162 93.6642 162 96.2442C162 98.8242 160.249 101.416 156.87 103.443C153.521 105.453 148.798 106.744 143.5 106.744C138.519 106.744 132.616 103.56 127.851 99.3542C125.498 97.2782 123.499 95.0202 122.103 92.9142C120.672 90.7572 120 88.9532 120 87.7442C120 87.1952 120.138 86.8402 120.33 86.5792C120.533 86.3022 120.877 86.0242 121.447 85.7782C122.636 85.2662 124.468 85.0322 126.872 85.0092Z" fill="#8B6914" fill-opacity="0.54"/>
<path d="M125 107.744C127.551 107.744 129.282 108.284 130.479 109.067C131.668 109.845 132.462 110.946 132.996 112.306C134.111 115.149 134 118.797 134 122.244C134 124.824 132.249 127.416 128.87 129.443C125.521 131.453 120.798 132.744 115.5 132.744C110.205 132.744 106.163 131.456 103.488 129.515C100.837 127.593 99.4998 125.023 99.4998 122.244C99.4998 121.155 100.187 119.681 101.769 117.965C103.31 116.292 105.522 114.586 108.121 113.051C113.346 109.964 119.831 107.744 125 107.744Z" fill="#8B6914" fill-opacity="0.54"/>
<path d="M156.147 104.744C157.749 104.744 158.793 105.217 159.533 105.908C160.308 106.632 160.881 107.72 161.275 109.156C162.079 112.084 161.997 115.832 161.997 119.244C161.997 124.835 156.626 129.744 149.498 129.744C142.37 129.744 137 124.834 137 119.244C137 118.047 137.601 116.532 138.848 114.837C140.073 113.17 141.816 111.476 143.829 109.955C147.915 106.866 152.757 104.744 156.147 104.744Z" fill="#8B6914" fill-opacity="0.54"/>
<path d="M100.5 135.744C105.798 135.744 110.521 137.035 113.87 139.045C117.249 141.072 119 143.664 119 146.244C119 148.048 119.341 150.044 119.635 151.857C119.94 153.742 120.197 155.45 120.144 156.925C120.091 158.386 119.74 159.367 119.062 160.012C118.376 160.666 117.071 161.244 114.5 161.244C113.088 161.244 111.493 161.3 109.817 161.356C108.131 161.413 106.349 161.471 104.521 161.478C100.856 161.494 97.0848 161.307 93.6908 160.532C90.2968 159.757 87.4008 158.422 85.3538 156.235C83.3368 154.079 81.9998 150.938 81.9998 146.244C81.9998 143.664 83.7508 141.072 87.1298 139.045C90.4788 137.035 95.2018 135.744 100.5 135.744Z" fill="#8B6914" fill-opacity="0.54"/>
<path d="M101.998 85.2442C104.751 85.2442 106.977 85.2992 108.777 85.4762C110.589 85.6552 111.861 85.9502 112.757 86.3682C113.605 86.7642 114.11 87.2652 114.439 87.9352C114.792 88.6572 114.998 89.6942 114.998 91.2442C114.998 93.5732 116.527 95.3792 117.932 96.7022C118.661 97.3892 119.458 98.0352 120.163 98.6122C120.89 99.2092 121.509 99.7262 121.99 100.217C122.486 100.723 122.692 101.065 122.756 101.271C122.785 101.365 122.807 101.437 122.663 101.639C122.455 101.928 121.949 102.385 120.835 102.96C119.746 103.523 118.195 104.139 116.049 104.813C113.32 105.671 109.586 107.547 105.935 109.123C102.148 110.757 98.2948 112.151 94.8908 112.364C91.5808 112.571 88.8578 111.667 86.9398 108.824C84.9188 105.83 83.6258 100.46 83.9968 91.3052C84.0508 89.9882 84.4818 89.0492 85.1848 88.3202C85.9208 87.5572 87.0498 86.9282 88.6418 86.4462C91.8608 85.4722 96.4568 85.2442 101.998 85.2442Z" fill="#8B6914" fill-opacity="0.54"/>
<path d="M140.5 129.744C145.798 129.744 150.521 131.035 153.87 133.045C157.249 135.072 159 137.664 159 140.244C159 143.184 157.273 148.908 154.121 153.932C150.944 158.996 146.711 162.744 142 162.744C136.492 162.744 132.132 162.218 128.841 159.361C125.551 156.506 122.995 151.016 122.001 140.182C122.029 137.622 123.778 135.056 127.13 133.045C130.479 131.035 135.202 129.744 140.5 129.744Z" fill="#8B6914" fill-opacity="0.54"/>
<path d="M54.4998 44.2442H35.4998V84.2442H54.4998V44.2442Z" fill="#8B6914" fill-opacity="0.54"/>
<path d="M134.823 0.744194L164.476 38.7442L128 34.7442L89.9998 43.7442L134.823 0.744194Z" stroke="#8B6914"/>
<path d="M131.119 82.2442L133.5 36.2442H127.786L112.547 39.5638L112.547 82.2442L118.262 80.8215L131.119 82.2442Z" fill="#8B6914" fill-opacity="0.54"/>
<path d="M100.213 33.7442L89.2868 43.7442H5.65313L15.0174 33.7442H100.213Z" fill="#8B6914" fill-opacity="0.54"/>
<path d="M111.213 22.7442L100.287 32.7442H16.6531L26.0174 22.7442H111.213Z" fill="#8B6914" fill-opacity="0.54"/>
<path d="M123.213 11.7442L112.287 21.7442H28.6531L38.0174 11.7442H123.213Z" fill="#8B6914" fill-opacity="0.54"/>
<path d="M134.213 0.744194L123.287 10.7442H39.6531L49.0174 0.744194H134.213Z" fill="#8B6914" fill-opacity="0.54"/>
<path d="M77.8233 83.2442V70.6392H73.5501L69.6653 68.6223L68.4998 83.2442H77.8233Z" fill="#8B6914" fill-opacity="0.54"/>
<path d="M87.9238 70.6392H78.6003V83.2442H87.9238V70.6392Z" fill="#8B6914" fill-opacity="0.54"/>
<path d="M98.0243 83.2442L98.8012 68.6223L94.1395 70.6392H88.7007V83.2442H98.0243Z" fill="#8B6914" fill-opacity="0.54"/>
<path d="M84.1836 53.2442C88.2996 53.2442 91.9695 53.8951 94.5716 54.9086C97.1969 55.9306 98.5574 57.2375 98.5574 58.5383C98.5574 60.1306 100.123 62.7923 98.5574 65.0929C99.9007 67.5489 102.158 68.6223 98.5574 68.6223L95.4495 70.6392L93.8956 57.3781C85.3491 55.8655 71.0762 54.0005 73.7956 70.6392C71.4341 70.0442 71.2681 70.439 69.8099 69.1265C66.8623 66.4744 69.8099 60.0701 69.8099 58.5383C69.8099 57.2375 71.1703 55.9306 73.7956 54.9086C76.3977 53.8951 80.0676 53.2442 84.1836 53.2442Z" fill="#8B6914" fill-opacity="0.54"/>
</svg>
