<svg width="211" height="445" viewBox="0 0 211 445" fill="none" xmlns="http://www.w3.org/2000/svg">
<rect width="211" height="445" fill="#312C2C"/>
<path d="M45 291.5C50.2976 291.5 55.021 292.791 58.3701 294.801C61.7491 296.828 63.5 299.42 63.5 302C63.5 303.83 63.9127 305.967 64.2988 307.971C64.6993 310.048 65.0821 312.03 65.1426 313.787C65.2037 315.564 64.9193 316.804 64.2764 317.597C63.6801 318.332 62.5085 319 60 319C57.1947 319 53.3247 319.416 49.5068 319.627C45.5815 319.844 41.517 319.866 37.8975 319.153C34.2849 318.442 31.2661 317.03 29.2432 314.501C27.2296 311.984 26.0148 308.123 26.4951 302.119L26.5 302.06V302C26.5 299.42 28.2509 296.828 31.6299 294.801C34.979 292.791 39.7024 291.5 45 291.5Z" fill="#D9D9D9" fill-opacity="0.16" stroke="black" stroke-width="3"/>
<path d="M85 285.5C90.2976 285.5 95.021 286.791 98.3701 288.801C101.749 290.828 103.5 293.42 103.5 296C103.5 299.158 102.786 304.566 100.771 309.129C98.744 313.715 95.6346 317 91 317H90.7803L90.5693 317.063C85.8438 318.481 82.0652 318.222 79.043 317.049C76.0036 315.869 73.5936 313.71 71.7168 311.107C67.923 305.847 66.5 299.038 66.5 296C66.5 293.42 68.2509 290.828 71.6299 288.801C74.979 286.791 79.7024 285.5 85 285.5Z" fill="#D9D9D9" fill-opacity="0.16" stroke="black" stroke-width="3"/>
<path d="M90.0004 240.5C92.7978 240.5 95.1932 240.461 97.2846 240.506C99.3764 240.55 101.026 240.677 102.3 240.975C103.567 241.272 104.305 241.701 104.747 242.229C105.178 242.745 105.5 243.562 105.5 245C105.5 248.157 104.786 253.566 102.77 258.129C100.744 262.715 97.6348 266 93.0004 266H92.8656L92.7328 266.024C82.3985 267.892 76.2423 267.773 72.7475 266.652C71.0418 266.105 70.0637 265.349 69.4994 264.555C68.9339 263.76 68.6738 262.772 68.6869 261.564C68.7143 259.051 69.9019 256.017 71.2406 252.969C71.8838 251.505 72.5677 250.021 73.0756 248.724C73.5689 247.465 74.0004 246.139 74.0004 245C74.0005 243.589 74.3387 242.784 74.8012 242.264C75.286 241.72 76.0928 241.28 77.436 240.978C78.7801 240.677 80.4989 240.55 82.6371 240.506C84.7759 240.461 87.2036 240.5 90.0004 240.5Z" fill="#D9D9D9" fill-opacity="0.16" stroke="black" stroke-width="3"/>
<path d="M53.9268 267.516C60.9606 267.516 67.2558 268.83 71.7363 270.891C76.346 273.011 78.4999 275.637 78.5 278.008C78.5 280.379 76.3461 283.005 71.7363 285.125C67.2558 287.186 60.9607 288.5 53.9268 288.5C46.7657 288.5 37.7185 287.747 31.4873 285.236C28.3651 283.978 26.1951 282.375 25.1797 280.447C24.2166 278.619 24.1224 276.158 25.9238 272.706L26.0938 272.38V272.012C26.0938 271.076 26.5563 270.304 27.8623 269.603C29.235 268.865 31.3249 268.349 34.041 268.02C39.457 267.363 46.6554 267.516 53.9268 267.516Z" fill="#D9D9D9" fill-opacity="0.16" stroke="black" stroke-width="3"/>
<path d="M52.9297 238.906C57.0919 238.969 61.3127 239.25 64.6162 240.082C68.0546 240.948 69.8395 242.237 70.252 243.796C70.4605 244.585 70.3986 245.686 69.7051 247.232C69.0082 248.786 67.7134 250.694 65.6123 253.007L65.2227 253.437V254.016C65.2227 256.595 63.4717 259.187 60.0928 261.215C56.7437 263.224 52.0202 264.516 46.7227 264.516C41.26 264.516 34.439 263.763 29.7783 261.314C27.4762 260.104 25.8341 258.549 25.0449 256.595C24.2633 254.659 24.2155 252.073 25.6152 248.573L25.7227 248.305V248.016C25.7227 245.312 27.0524 243.139 29.7295 241.565C32.475 239.952 36.6202 239 42 239C44.8803 239 48.7223 238.843 52.9297 238.906Z" fill="#D9D9D9" fill-opacity="0.16" stroke="black" stroke-width="3"/>
<path d="M100.5 268.5C105.798 268.5 110.521 269.791 113.87 271.801C117.249 273.828 119 276.42 119 279C119 282.325 118.737 285.29 117.376 287.431C116.18 289.312 113.929 290.839 109.251 290.986C104.144 284.247 96.8763 282.534 91.1572 281.688C88.089 281.235 85.7045 281.051 83.9395 280.562C83.0852 280.325 82.5925 280.067 82.3252 279.822C82.123 279.637 82 279.423 82 279C82 276.42 83.7509 273.828 87.1299 271.801C90.479 269.791 95.2024 268.5 100.5 268.5Z" fill="#D9D9D9" fill-opacity="0.16" stroke="black" stroke-width="3"/>
<path d="M151.372 240.765C153.739 240.742 156.458 240.921 159.335 241.111C162.186 241.3 165.18 241.5 168 241.5C173.298 241.5 178.021 242.791 181.37 244.801C184.749 246.828 186.5 249.42 186.5 252C186.5 254.58 184.749 257.172 181.37 259.199C178.021 261.209 173.298 262.5 168 262.5C163.019 262.5 157.116 259.316 152.351 255.11C149.998 253.034 147.999 250.776 146.603 248.67C145.172 246.513 144.5 244.709 144.5 243.5C144.5 242.951 144.638 242.596 144.83 242.335C145.033 242.058 145.377 241.78 145.947 241.534C147.136 241.022 148.968 240.788 151.372 240.765Z" fill="#D9D9D9" fill-opacity="0.16" stroke="black" stroke-width="3"/>
<path d="M149.5 263.5C152.051 263.5 153.782 264.04 154.979 264.823C156.168 265.601 156.962 266.702 157.496 268.062C158.611 270.905 158.5 274.553 158.5 278C158.5 280.58 156.749 283.172 153.37 285.199C150.021 287.209 145.298 288.5 140 288.5C134.705 288.5 130.663 287.212 127.988 285.271C125.337 283.349 124 280.779 124 278C124 276.911 124.687 275.437 126.269 273.721C127.81 272.048 130.022 270.342 132.621 268.807C137.846 265.72 144.331 263.5 149.5 263.5Z" fill="#D9D9D9" fill-opacity="0.16" stroke="black" stroke-width="3"/>
<path d="M180.647 260.5C182.249 260.5 183.293 260.973 184.033 261.664C184.808 262.388 185.381 263.476 185.775 264.912C186.579 267.84 186.497 271.588 186.497 275C186.497 280.591 181.126 285.5 173.998 285.5C166.87 285.5 161.5 280.59 161.5 275C161.5 273.803 162.101 272.288 163.348 270.593C164.573 268.926 166.316 267.232 168.329 265.711C172.415 262.622 177.257 260.5 180.647 260.5Z" fill="#D9D9D9" fill-opacity="0.16" stroke="black" stroke-width="3"/>
<path d="M125 291.5C130.298 291.5 135.021 292.791 138.37 294.801C141.749 296.828 143.5 299.42 143.5 302C143.5 303.804 143.841 305.8 144.135 307.613C144.44 309.498 144.697 311.206 144.644 312.681C144.591 314.142 144.24 315.123 143.562 315.768C142.876 316.422 141.571 317 139 317C137.588 317 135.993 317.056 134.317 317.112C132.631 317.169 130.849 317.227 129.021 317.234C125.356 317.25 121.585 317.063 118.191 316.288C114.797 315.513 111.901 314.178 109.854 311.991C107.837 309.835 106.5 306.694 106.5 302C106.5 299.42 108.251 296.828 111.63 294.801C114.979 292.791 119.702 291.5 125 291.5Z" fill="#D9D9D9" fill-opacity="0.16" stroke="black" stroke-width="3"/>
<path d="M126.498 241C129.251 241 131.477 241.055 133.277 241.232C135.089 241.411 136.361 241.706 137.257 242.124C138.105 242.52 138.61 243.021 138.939 243.691C139.292 244.413 139.498 245.45 139.498 247C139.498 249.329 141.027 251.135 142.432 252.458C143.161 253.145 143.958 253.791 144.663 254.368C145.39 254.965 146.009 255.482 146.49 255.973C146.986 256.479 147.192 256.821 147.256 257.027C147.285 257.121 147.307 257.193 147.163 257.395C146.955 257.684 146.449 258.141 145.335 258.716C144.246 259.279 142.695 259.895 140.549 260.569C137.82 261.427 134.086 263.303 130.435 264.879C126.648 266.513 122.795 267.907 119.391 268.12C116.081 268.327 113.358 267.423 111.44 264.58C109.419 261.586 108.126 256.216 108.497 247.061C108.551 245.744 108.982 244.805 109.685 244.076C110.421 243.313 111.55 242.684 113.142 242.202C116.361 241.228 120.957 241 126.498 241Z" fill="#D9D9D9" fill-opacity="0.16" stroke="black" stroke-width="3"/>
<path d="M165 285.5C170.298 285.5 175.021 286.791 178.37 288.801C181.749 290.828 183.5 293.42 183.5 296C183.5 298.94 181.773 304.664 178.621 309.688C175.444 314.752 171.211 318.5 166.5 318.5C160.992 318.5 156.632 317.974 153.341 315.117C150.051 312.262 147.495 306.772 146.501 295.938C146.529 293.378 148.278 290.812 151.63 288.801C154.979 286.791 159.702 285.5 165 285.5Z" fill="#D9D9D9" fill-opacity="0.16" stroke="black" stroke-width="3"/>
<rect x="75.5" y="160.5" width="19" height="79" fill="#644C4C" stroke="black"/>
<path d="M159.323 156.5L188.976 194.5H105.257L77.9746 156.5H159.323Z" fill="#644C4C" stroke="black"/>
<rect x="120.5" y="159.5" width="19" height="82" fill="#644C4C" stroke="black"/>
<path d="M124.713 189.5L113.787 199.5H30.1533L39.5176 189.5H124.713Z" fill="#644C4C" stroke="black"/>
<path d="M135.713 178.5L124.787 188.5H41.1533L50.5176 178.5H135.713Z" fill="#644C4C" stroke="black"/>
<path d="M147.713 167.5L136.787 177.5H53.1533L62.5176 167.5H147.713Z" fill="#644C4C" stroke="black"/>
<path d="M158.713 156.5L147.787 166.5H64.1533L73.5176 156.5H158.713Z" fill="#644C4C" stroke="black"/>
</svg>
